<svg width="25" height="23" viewBox="0 0 25 23" fill="none" xmlns="http://www.w3.org/2000/svg">
<g clip-path="url(#clip0_2984_6648)">
<path d="M8.21432 22.4001C9.09798 22.4001 9.81432 21.6837 9.81432 20.8001C9.81432 19.9164 9.09798 19.2001 8.21432 19.2001C7.33066 19.2001 6.61432 19.9164 6.61432 20.8001C6.61432 21.6837 7.33066 22.4001 8.21432 22.4001Z" fill="#252B42"/>
<path d="M19.4143 22.4001C20.298 22.4001 21.0143 21.6837 21.0143 20.8001C21.0143 19.9164 20.298 19.2001 19.4143 19.2001C18.5307 19.2001 17.8143 19.9164 17.8143 20.8001C17.8143 21.6837 18.5307 22.4001 19.4143 22.4001Z" fill="#252B42"/>
<path d="M22.6143 4.00004H4.87029L4.21429 0.640041C4.17689 0.45662 4.07636 0.292123 3.93018 0.175183C3.78401 0.0582432 3.60145 -0.00373366 3.41429 4.06809e-05H0.214294V1.60004H2.75829L5.81429 16.96C5.8517 17.1435 5.95223 17.308 6.09841 17.4249C6.24458 17.5418 6.42714 17.6038 6.61429 17.6H21.0143V16H7.27029L6.61429 12.8H21.0143C21.1992 12.8046 21.38 12.7449 21.5259 12.6311C21.6717 12.5173 21.7737 12.3565 21.8143 12.176L23.4143 4.97604C23.4411 4.85734 23.4405 4.73409 23.4125 4.61567C23.3845 4.49724 23.3298 4.38677 23.2527 4.29266C23.1755 4.19854 23.0779 4.12327 22.9673 4.07256C22.8567 4.02185 22.7359 3.99705 22.6143 4.00004ZM20.3743 11.2H6.31029L5.19029 5.60004H21.6143L20.3743 11.2Z" fill="#252B42"/>
</g>
<defs>
<clipPath id="clip0_2984_6648">
<rect width="24" height="22.4002" fill="white" transform="translate(0.214294 -0.00012207)"/>
</clipPath>
</defs>
</svg>
