<svg width="22" height="23" viewBox="0 0 22 23" fill="none" xmlns="http://www.w3.org/2000/svg">
<g clip-path="url(#clip0_19449_547)">
<path d="M10.6071 11.2C12.0137 11.2 13.3627 10.6205 14.3573 9.58904C15.3519 8.55759 15.9107 7.15864 15.9107 5.69995C15.9107 4.24126 15.3519 2.84231 14.3573 1.81086C13.3627 0.779414 12.0137 0.199951 10.6071 0.199951C9.20055 0.199951 7.85156 0.779414 6.85695 1.81086C5.86234 2.84231 5.30357 4.24126 5.30357 5.69995C5.30357 7.15864 5.86234 8.55759 6.85695 9.58904C7.85156 10.6205 9.20055 11.2 10.6071 11.2ZM14.1429 5.69995C14.1429 6.67241 13.7703 7.60504 13.1073 8.29268C12.4442 8.98031 11.5449 9.36662 10.6071 9.36662C9.66941 9.36662 8.77009 8.98031 8.10701 8.29268C7.44394 7.60504 7.07143 6.67241 7.07143 5.69995C7.07143 4.72749 7.44394 3.79486 8.10701 3.10723C8.77009 2.41959 9.66941 2.03328 10.6071 2.03328C11.5449 2.03328 12.4442 2.41959 13.1073 3.10723C13.7703 3.79486 14.1429 4.72749 14.1429 5.69995ZM21.2143 20.3666C21.2143 22.2 19.4464 22.2 19.4464 22.2H1.76786C1.76786 22.2 0 22.2 0 20.3666C0 18.5333 1.76786 13.0333 10.6071 13.0333C19.4464 13.0333 21.2143 18.5333 21.2143 20.3666ZM19.4464 20.3593C19.4447 19.9083 19.1742 18.5516 17.9756 17.3086C16.8229 16.1133 14.6538 14.8666 10.6071 14.8666C6.55875 14.8666 4.39136 16.1133 3.23871 17.3086C2.04011 18.5516 1.77139 19.9083 1.76786 20.3593H19.4464Z" fill="currentColor"/>
</g>
<defs>
<clipPath id="clip0_19449_547">
<rect width="21.2143" height="22" fill="white" transform="translate(0 0.199951)"/>
</clipPath>
</defs>
</svg>
