<svg width="25" height="25" viewBox="0 0 25 25" fill="none" xmlns="http://www.w3.org/2000/svg">
<g clip-path="url(#clip0_2984_6646)">
<path fill-rule="evenodd" clip-rule="evenodd" d="M17.4044 15.6781L23.8601 22.1338C24.087 22.3609 24.2144 22.6688 24.2143 22.9898C24.2142 23.3108 24.0866 23.6186 23.8595 23.8455C23.6324 24.0724 23.3245 24.1998 23.0035 24.1997C22.6825 24.1996 22.3747 24.072 22.1478 23.8449L15.6921 17.3892C13.7622 18.884 11.3354 19.5874 8.90533 19.3563C6.47527 19.1253 4.22448 17.9772 2.61085 16.1456C0.99723 14.314 0.14198 11.9364 0.21909 9.49663C0.2962 7.05683 1.29988 4.73803 3.02594 3.01197C4.75201 1.2859 7.0708 0.282223 9.51061 0.205113C11.9504 0.128003 14.328 0.983253 16.1596 2.59688C17.9912 4.2105 19.1393 6.46129 19.3703 8.89136C19.6013 11.3214 18.8979 13.7482 17.4032 15.6781H17.4044ZM9.81474 16.9992C11.7242 16.9992 13.5555 16.2407 14.9057 14.8905C16.2559 13.5403 17.0144 11.709 17.0144 9.79956C17.0144 7.89009 16.2559 6.05883 14.9057 4.70863C13.5555 3.35843 11.7242 2.5999 9.81474 2.5999C7.90527 2.5999 6.07401 3.35843 4.72381 4.70863C3.37361 6.05883 2.61508 7.89009 2.61508 9.79956C2.61508 11.709 3.37361 13.5403 4.72381 14.8905C6.07401 16.2407 7.90527 16.9992 9.81474 16.9992Z" fill="#252B42"/>
</g>
<defs>
<clipPath id="clip0_2984_6646">
<rect width="24" height="23.9997" fill="white" transform="translate(0.214294 0.200073)"/>
</clipPath>
</defs>
</svg>
